HIERARCHY
ROOT Hips
{
    OFFSET 13.53184700012207 83.40420532226562 -17.046546936035156
    CHANNELS 6 Xposition Yposition Zposition Zrotation Xrotation Yrotation
    JOINT RightUpLeg
    {
        OFFSET -13.53184700012207 0.0 0.0
        CHANNELS 3 Zrotation Xrotation Yrotation
        JOINT RightLeg
        {
            OFFSET 0.0 -40.78783416748047 0.0
            CHANNELS 3 Zrotation Xrotation Yrotation
            JOINT RightFoot
            {
                OFFSET 0.0 -42.616371154785156 0.0
                CHANNELS 3 Zrotation Xrotation Yrotation
                End Site
                {
                    OFFSET 0.0 0.0 17.046546936035156
                }
            }
        }
    }
    JOINT LeftUpLeg
    {
        OFFSET 13.53184700012207 0.0 0.0
        CHANNELS 3 Zrotation Xrotation Yrotation
        JOINT LeftLeg
        {
            OFFSET 0.0 -40.78783416748047 0.0
            CHANNELS 3 Zrotation Xrotation Yrotation
            JOINT LeftFoot
            {
                OFFSET 0.0 -42.616371154785156 0.0
                CHANNELS 3 Zrotation Xrotation Yrotation
                End Site
                {
                    OFFSET 0.0 0.0 17.046546936035156
                }
            }
        }
    }
    JOINT Spine
    {
        OFFSET 0.0 23.511629104614258 0.0
        CHANNELS 3 Zrotation Xrotation Yrotation
        JOINT Spine3
        {
            OFFSET 0.0 24.256099700927734 0.0
            CHANNELS 3 Zrotation Xrotation Yrotation
            JOINT Neck
            {
                OFFSET 0.0 9.044340133666992 0.0
                CHANNELS 3 Zrotation Xrotation Yrotation
                End Site
                {
                    OFFSET 0.0 3.6177361011505127 0.0
                }
            }
            JOINT LeftArm
            {
                OFFSET 14.135832786560059 0.0 0.0
                CHANNELS 3 Zrotation Xrotation Yrotation
                JOINT LeftForeArm
                {
                    OFFSET 25.985118865966797 0.0 0.0
                    CHANNELS 3 Zrotation Xrotation Yrotation
                    JOINT LeftHand
                    {
                        OFFSET 18.28965187072754 0.0 0.0
                        CHANNELS 3 Zrotation Xrotation Yrotation
                        End Site
                        {
                            OFFSET 7.315860748291016 0.0 0.0
                        }
                    }
                }
            }
            JOINT RightArm
            {
                OFFSET -14.135832786560059 0.0 0.0
                CHANNELS 3 Zrotation Xrotation Yrotation
                JOINT RightForeArm
                {
                    OFFSET -25.985118865966797 0.0 0.0
                    CHANNELS 3 Zrotation Xrotation Yrotation
                    JOINT RightHand
                    {
                        OFFSET -18.28965187072754 0.0 0.0
                        CHANNELS 3 Zrotation Xrotation Yrotation
                        End Site
                        {
                            OFFSET -7.315860748291016 0.0 0.0
                        }
                    }
                }
            }
        }
    }
}
MOTION
Frames: 7
Frame Time: 0.03333333333333333
0.0002736017922870815 60.38807678222656 -0.0007210192270576954 8.845017775188593 -4.856425727000664 66.44677450932609 18.61649314702592 -58.2862279885108 12.961842832404535 63.228013139961114 82.98437731539849 -70.98956343876637 -3.9756933518293984e-16 -2.9817700138720468e-15 -9.14409470920761e-15 -11.098776530084098 -55.50485383009095 -12.071484761980823 82.18085340135852 82.072495098135 -73.8541371028751 1.9878466759146976e-15 3.379339349054986e-15 2.981770013872046e-16 7.2966024547384505 18.858030664408716 -1.2409976806941878 3.579724455192991e-07 3.732986628095436e-08 5.956271377382906 -3.786154069197169 -12.00568821948356 178.0642971864713 106.8420952835073 -13.323596692174974 -159.23254750062284 -7.279286974688158e-07 7.288368855529071e-06 48.79281036437584 1.2959828523834496e-15 -6.360721111623144e-15 1.0521610335407873e-15 -116.53307234317178 2.046094015921522 143.94429671183573 3.7329210567266374e-06 9.958851907253305e-08 -66.06902274858246 1.5902773407317584e-15 -6.3611093629270335e-15 -1.5902773407317584e-15
0.0003060120507143438 60.388057708740234 -0.0007112501189112663 8.81450972116594 -4.38321309255467 66.37796381150837 17.509082750918587 -58.78911785437954 12.30924766004752 64.80372183725864 83.00053403904634 -72.04105592418395 -1.5902773407317584e-15 -1.9878466759146975e-16 -2.6338968455869747e-15 -11.479577367262667 -56.0768783539809 -12.236207741219706 85.24473851273115 82.45554896436799 -77.02085219330067 1.1927080055488188e-15 -3.1805546814635168e-15 -1.6896696745274934e-15 7.538629653583936 18.600093422391097 -1.3920016225411684 6.061454487342254e-08 -4.1489756545270597e-07 6.049095580072882 -4.483108595293143 -11.861959610583513 177.71395248542404 107.09168795411317 -13.45585177113209 -159.94054850775316 6.627431021968421e-06 4.6145526253918795e-07 52.78505837568351 5.764755360152624e-15 0.0 0.0 -117.51720259859566 2.12856603638896 143.95779634287922 2.4110461163638835e-06 4.0068324201103336e-07 -66.62655589195363 1.5902773407317588e-15 6.361109362927035e-15 -8.827812596100317e-32
0.0002774567692540586 60.38802719116211 -0.0007252989453263581 8.830816124365253 -4.159580527454689 66.09079560338724 17.57823632537466 -58.67747911035331 12.399535414309419 65.03702394505038 82.64198390903839 -72.34773834466348 9.93923337957349e-16 -3.1805546814635168e-15 5.963540027744094e-16 -10.919553931545899 -55.78739686959151 -11.68088772644665 82.81569709356312 82.72429788082164 -74.85893364633915 -3.9756933518293955e-16 -4.138037154422024e-33 1.1927080055488186e-15 7.238740353641443 18.322072098533877 -1.2932176242533744 4.866854087419139e-07 -2.388144998852595e-07 6.522819752951809 -4.791971346708042 -11.521224703958687 177.81866967004913 106.44675689100386 -11.670100232522794 -160.60862233823855 3.0534207295438654e-06 -2.8903541002474855e-06 51.26221383954582 1.459824902624856e-16 6.3611093629270335e-15 5.870359714810592e-16 -117.35229466442254 1.8679565425260525 144.35249692978797 2.4035799622789907e-06 3.2609055315172125e-06 -66.64125282065008 1.5902773407317584e-15 0.0 0.0
0.00027574325213208795 60.38809585571289 -0.0007309899665415287 8.761897754827734 -4.5184326124747205 66.17770907998428 17.92366657147934 -58.6742294791061 12.700057497274656 63.93594797006589 82.82611268043172 -71.42405973986858 3.9756933518293955e-16 1.1379602174660566e-32 3.279947015259251e-15 -10.197757982988994 -55.92398505296712 -11.08948026914931 83.54861248928023 82.66396546172182 -76.02309319542584 1.1927080055488186e-15 3.975693351829394e-16 -1.1430118386509512e-14 7.805014889565689 18.416897571673587 -1.479895975992252 8.518500693849543e-07 -1.5201572091092093e-07 6.428714261019029 -4.928833389213031 -11.278224756527067 178.461807139185 106.56237917449705 -12.117542057655074 -160.41131306594858 -2.139404909244957e-06 -4.711833207673603e-06 52.70823823709697 9.939233379573489e-17 -3.4483642953516864e-34 -3.9756933518293955e-16 -118.08080415988158 1.1656368579742145 144.20491069866517 -3.814124638692283e-07 2.4296204185121696e-06 -66.79154501193035 1.5902773407317584e-15 0.0 0.0
0.00025283306604251266 60.38806915283203 -0.0007360345916822553 9.302447680331825 -4.889563550418665 66.64436335916888 17.986990974716857 -57.71570473678107 12.568105733639666 60.00299630881751 82.8400183574411 -67.67614088712301 3.975693351829394e-16 -3.1805546814635164e-15 -5.6653630263568886e-15 -10.66912019894289 -54.67644641857839 -11.377266702454039 77.31709398408792 81.76071180157093 -69.15950139527122 -1.5902773407317588e-15 1.9878466759146975e-16 6.758678698109974e-15 7.183753599075353 18.983029403800682 -1.2978842677982985 2.668696006932534e-07 -1.3214206172257575e-06 6.003183921142898 -3.7930139348675924 -10.930293150543228 179.08805792043245 107.1041828866651 -13.240205325977074 -158.9737685061948 5.711493950045026e-06 -1.6386077609611082e-06 49.38736836637436 -5.913843860846226e-15 6.361109362927033e-15 -1.9878466759146945e-16 -117.01190528843537 1.3986148184948675 144.08971661852192 3.4323222566249066e-06 3.378547713677028e-06 -66.25746603892478 -1.5902773407317582e-15 2.2069531490250793e-32 -1.5902773407317582e-15
0.00027269302518106997 60.38807678222656 -0.0007349479128606617 9.324664447267178 -4.917072240622237 66.61633331089108 18.072653270593243 -57.657936389590745 12.610904695799968 58.676236113860426 82.85808849660272 -66.38652874838095 1.590277340731758e-15 -2.9817700138720468e-15 -1.1032549051326574e-14 -10.319628589622997 -54.58340482366881 -11.096431533487186 76.39250632224297 81.67044614924673 -68.38952930189137 7.95138670365879e-16 3.1805546814635164e-15 2.484808344893372e-15 7.212469158399065 18.983133038967953 -1.2985018356577613 -1.8222141240618302e-07 -5.448732878620237e-07 6.017941243311237 -3.6285943392748834 -10.97644752104512 179.33751894161486 107.18836062743644 -13.421130962573114 -158.98188105507046 -3.1534190209061572e-06 -9.74701993966142e-06 50.094332859663545 3.975693351829396e-16 -4.969616689786745e-17 3.975693351829396e-16 -117.08609058609896 1.391709347880242 144.29879427444715 6.032642059319837e-08 -1.3356040238659231e-06 -66.89312777253323 3.1805546814635168e-15 -2.2069531490250793e-32 -7.951386703658792e-16
0.0002675930445548147 60.388065338134766 -0.0007295160903595388 9.417541194446601 -5.02048613375321 66.74981936393684 18.1006449040806 -57.473896404497474 12.56949172451472 57.70147399515267 82.86915831303763 -65.43742890894903 3.9756933518293955e-16 -1.9878466759146977e-16 -1.5902773407317582e-15 -10.577611851789834 -54.326626539768306 -11.314592496647949 75.83282506395726 81.36799422334907 -67.58394943616479 -1.1927080055488186e-15 2.9817700138720468e-15 2.981770013872047e-16 7.246610290837745 19.070077254812475 -1.2999284464930592 5.373276993242395e-07 8.792512386874842e-07 5.969946802473482 -3.39900146131779 -11.078138790287747 179.317267914668 107.0676598714472 -13.487933797625733 -158.7836728336621 -4.165917444465991e-06 -6.628298664663228e-06 50.522056257010114 -3.0811623476677814e-15 0.0 0.0 -117.16782687568774 1.442150689683749 144.06793913554 9.967073380056284e-07 -2.5900846206150083e-06 -66.08085403213057 8.827812596100317e-32 -6.3611093629270335e-15 1.5902773407317584e-15
